<?xml version="1.0" encoding="UTF-8"?> <!-- Generator: Adobe Illustrator 23.0.4, SVG Export Plug-In . SVG Version: 6.00 Build 0) --> <svg xmlns="http://www.w3.org/2000/svg" xmlns:xlink="http://www.w3.org/1999/xlink" version="1.1" id="Capa_1" x="0px" y="0px" viewBox="0 0 320.7 65" style="enable-background:new 0 0 320.7 65;" xml:space="preserve"> <style type="text/css"> .st0{fill:#FFFFFF;} .st1{font-family:'Muli-Regular';} .st2{font-size:16.5409px;} .st3{fill:#FFFFFF;stroke:#000000;stroke-width:0.3;} .st4{fill-rule:evenodd;clip-rule:evenodd;fill:#FFFFFF;} </style> <title>Img-Footer-UNSL</title> <text transform="matrix(1 0 0 1 63.1387 41.5215)" class="st0 st1 st2">Universidad Nacional de San Luis</text> <path class="st0" d="M18.6,25.1"></path> <path class="st3" d="M8.1,85.1"></path> <path class="st0" d="M16.2,11.7c-2.9,0-4.1,1.9-4.1,4.6v10.6c0,2.7,1.3,2.8,2.7,2.8s2.8-2,3.4-4.8c1-4.9,5.3-8.3,10.3-8.1 c8.3,0,10.9,7.5,11.2,8.8c0.5,2.8,1.8,4.2,3.2,4.2c1.4,0,2.3-0.2,2.3-2.9V16.3c0-2.7-1.4-4.5-4.2-4.6L16.2,11.7z"></path> <path class="st0" d="M24.4,24.9c1.5,0,2.7-1.2,2.7-2.6c0-1.5-1.2-2.7-2.6-2.7c-1.5,0-2.7,1.2-2.7,2.6c0,0,0,0,0,0 C21.7,23.7,22.9,24.9,24.4,24.9C24.3,24.9,24.3,24.9,24.4,24.9z"></path> <path class="st0" d="M32.1,28.7c0,0-1.8,2.5-2.5,3.6c-0.7,1.1-1.5,2.8,1.4,2.8c1.9,0.1,3.8-0.2,5.6-0.9c1.3-0.5,1.5-1,0.8-2.5 c-0.6-1.2-1.4-2.4-2.2-3.5C33.9,26.1,33.1,27.5,32.1,28.7z"></path> <path class="st0" d="M11.3,34.9c0,0,3.2-2.3,4.2-2.8c0.9-0.7,2.1-0.6,2.9,0.1c1.3,0.9,7.9,4.6,13.5,4.6c3.1,0.1,6.1-0.8,8.7-2.5 c0.9-0.6,2.5-2.1,5.3-1.1v5.3l-2,0.3v-0.7h-1.3v-1.3c0-0.4-0.2-0.7-0.6-0.7s-0.7,0.2-0.7,0.6c0,0.1,0,0.1,0,0.2v1.3h-0.8v-1.3h0.5 v-0.3h-0.5V36H40v0.5h-0.5v0.3H40v1.3h-0.8v-1.3c0-0.4-0.2-0.7-0.6-0.7s-0.7,0.2-0.7,0.6c0,0.1,0,0.1,0,0.2v1.3h-0.7v1.3h-0.7v-0.7 h-0.7v0.7h-0.7v-1.3h0.7l-0.7-0.7h-3.3l-0.7,0.7h0.7v1.3h-1.3v-1.3h-2v1.3h-0.7v-0.7h-0.7v-1.3h-1.4v1.3h-0.7v0.7h-1.3v-1.3l-2-0.7 v0.7l-1.3-0.7v0.7l-1.3-0.7v0.7h-1.3l-0.3-4H17l-0.4,4l-1.3-0.7v0.7h-2v1.3h-2L11.3,34.9z"></path> <path class="st4" d="M15.8,50.4c0.2,0.2,0.5,0.4,0.7,0.6l4.2-3.3l-1-0.1L15.8,50.4z"></path> <path class="st4" d="M13.3,47.6c0.2,0.2,0.3,0.5,0.5,0.7l1.7-0.8c-0.5,0-1.1-0.1-1.6-0.2L13.3,47.6z"></path> <path class="st4" d="M19.4,52.8c0.3,0.2,0.7,0.3,1,0.5l3.7-5.1L23.3,48L19.4,52.8z"></path> <path class="st0" d="M43.4,48.3c0.2-0.2,0.4-0.5,0.5-0.7l-2.8-1.1c0.3,0.3,0.5,0.7,0.6,1.1L43.4,48.3z"></path> <path class="st0" d="M23.7,54.3l1,0.2l1.8-5.9c-0.2-0.1-0.4-0.1-0.6-0.2L23.7,54.3z"></path> <path class="st0" d="M45.9,41.5H11.4c0,0.3,0,0.6,0,0.8l16.2-0.7l-15.9,2.7c0.1,0.3,0.2,0.6,0.3,0.9l15.6-3.4c0,0-1.6,0.7-3.8,1.5 l1.1-0.1l2.8-1.3c0,0-0.6,0.5-1.6,1.2h0.5l1.3-1c0,0-0.3,0.4-0.8,1h0.4l0.6-0.8c0,0-0.1,0.3-0.3,0.8h0.3l0.2-0.8c0,0.3,0,0.5,0,0.8 h0.3c0-0.5,0-0.8,0-0.8l0.2,0.8h0.3c-0.2-0.5-0.3-0.8-0.3-0.8l0.6,0.9h0.4c-0.5-0.6-0.8-1-0.8-1l1.3,1h0.6c-1.1-0.7-1.7-1.2-1.7-1.2 l3,1.4c0.5,0,0.9,0.1,1.4,0.2c-2.4-0.9-4.3-1.7-4.3-1.7l15.6,3.4c0.1-0.3,0.2-0.6,0.3-0.9c0,0-15.9-2.7-15.9-2.7l16.2,0.7 C45.8,42.1,45.9,41.8,45.9,41.5z"></path> <path class="st4" d="M28,54.8h1.3c0,0-0.1-1.6-0.2-3.6c-0.3-0.5-0.6-1-0.9-1.4C28.1,52.5,28,54.8,28,54.8z"></path> <path class="st0" d="M33.9,43.6l7.4,2.9C39.9,45,37,44,33.9,43.6z"></path> <path class="st4" d="M26.7,43.2l-5.9,4.6c0.9,0.1,1.8,0.2,2.5,0.3c1.5-1.8,3.1-3.7,3.9-4.9L26.7,43.2z"></path> <path class="st0" d="M25.1,43.3l-9.5,4.3h0.1c1.5,0,2.9,0,4.1,0.1l6.4-4.5L25.1,43.3z"></path> <path class="st4" d="M14,45.8c-1.1,0.5-1.2,1.2-0.2,1.6c1.7-0.7,6.6-2.6,10-4C20.5,43.6,17.2,44.4,14,45.8z"></path> <path class="st4" d="M28.8,43.1c0.1,1.6,0.2,5.3,0.3,8.1c0.3,0.6,0.6,1.2,0.9,1.8c0.2,0.8,1,1.4,1.8,1.4c0.2,0,0.5-0.1,0.7-0.1 l-3.5-11.1L28.8,43.1z"></path> <path class="st4" d="M29.4,43.1c0.9,2.5,3.6,9.5,4.2,10.9c1.1-0.3,2.2-0.6,3.2-1l-7.1-9.9L29.4,43.1z"></path> <path class="st0" d="M30.1,43.2c1.9,2.4,6.8,8.3,7.7,9.4c1-0.4,1.9-1,2.8-1.7l-9.9-7.7L30.1,43.2z"></path> <path class="st0" d="M28.2,43.1l-1.7,5.5c0.7,0.1,1.3,0.6,1.7,1.2c0.1-2.5,0.2-5.4,0.3-6.7H28.2z"></path> <path class="st0" d="M31.2,43.3c2.9,2.1,8.8,6.1,10,7c0.3-0.4,0.6-0.8,0.7-1.3c0.1-0.4,0.1-0.9,0-1.4l-9.4-4.2 C32.1,43.3,31.6,43.3,31.2,43.3z"></path> <path class="st4" d="M27.6,43.1l-3.6,5c0.7,0.1,1.4,0.2,1.8,0.3c0.8-2.1,1.6-4.2,2-5.3L27.6,43.1z"></path> <path class="st0" d="M10,15c0-3.3,2-5.3,5.3-5.3h26.6c3.3,0,5.3,2,5.3,5.3v12.7h4.7c0.1-10.4,0.6-15.8,0.6-15.8c0-4.8-3.4-7.5-8-7.5 H12.6c-4.6,0-8.2,2.8-8.2,7.5c0,0,0.5,5.4,0.6,15.8H10L10,15z"></path> <path class="st0" d="M47.1,31.8v13c0,8.6-5.4,12.6-18.6,12.6S9.9,52.1,9.9,44.2V31.8H5.1c0,6-0.5,13.7-0.5,13.7 c0,11.9,6,18.6,23.9,18.6c17.9,0,23.9-6.6,23.9-18.6c0,0-0.5-7.6-0.6-13.7H47.1z"></path> </svg> 